<mxfile host="app.diagrams.net" modified="2023-01-10T12:15:06.968Z" agent="5.0 (Windows NT 10.0; Win64; x64) AppleWebKit/537.36 (KHTML, like Gecko) Chrome/108.0.0.0 Safari/537.36" etag="IQZClbmmpj5npUmaJ-f_" version="20.8.1" type="github">
  <diagram name="Page-1" id="0783ab3e-0a74-02c8-0abd-f7b4e66b4bec">
    <mxGraphModel dx="1050" dy="581" grid="1" gridSize="10" guides="1" tooltips="1" connect="1" arrows="1" fold="1" page="1" pageScale="1" pageWidth="850" pageHeight="1100" background="none" math="0" shadow="0">
      <root>
        <mxCell id="0" />
        <mxCell id="1" parent="0" />
        <mxCell id="1c1d494c118603dd-1" value="&lt;i&gt;Activity Diagram&lt;/i&gt;&amp;nbsp;&lt;i&gt;Offline Data Synchronization&lt;/i&gt;" style="swimlane;html=1;childLayout=stackLayout;startSize=20;rounded=0;shadow=0;comic=0;labelBackgroundColor=none;strokeWidth=1;fontFamily=Verdana;fontSize=12;align=center;" parent="1" vertex="1">
          <mxGeometry x="85" y="160" width="680" height="780" as="geometry" />
        </mxCell>
        <mxCell id="1c1d494c118603dd-2" value="&lt;i&gt;User&lt;/i&gt;" style="swimlane;html=1;startSize=20;" parent="1c1d494c118603dd-1" vertex="1">
          <mxGeometry y="20" width="320" height="760" as="geometry">
            <mxRectangle y="20" width="40" height="970" as="alternateBounds" />
          </mxGeometry>
        </mxCell>
        <mxCell id="60571a20871a0731-4" value="" style="ellipse;whiteSpace=wrap;html=1;rounded=0;shadow=0;comic=0;labelBackgroundColor=none;strokeWidth=1;fillColor=#000000;fontFamily=Verdana;fontSize=12;align=center;" parent="1c1d494c118603dd-2" vertex="1">
          <mxGeometry x="140" y="40" width="40" height="40" as="geometry" />
        </mxCell>
        <mxCell id="60571a20871a0731-8" value="Membuka halaman &lt;i&gt;Home&lt;/i&gt;" style="rounded=1;whiteSpace=wrap;html=1;shadow=0;comic=0;labelBackgroundColor=none;strokeWidth=1;fontFamily=Verdana;fontSize=12;align=center;arcSize=50;" parent="1c1d494c118603dd-2" vertex="1">
          <mxGeometry x="95" y="120" width="130" height="30" as="geometry" />
        </mxCell>
        <mxCell id="1c1d494c118603dd-27" style="edgeStyle=orthogonalEdgeStyle;rounded=0;html=1;labelBackgroundColor=none;startArrow=none;startFill=0;startSize=5;endArrow=classicThin;endFill=1;endSize=5;jettySize=auto;orthogonalLoop=1;strokeWidth=1;fontFamily=Verdana;fontSize=12" parent="1c1d494c118603dd-2" source="60571a20871a0731-4" target="60571a20871a0731-8" edge="1">
          <mxGeometry relative="1" as="geometry" />
        </mxCell>
        <mxCell id="1c1d494c118603dd-4" value="&lt;i&gt;System&lt;/i&gt;" style="swimlane;html=1;startSize=20;" parent="1c1d494c118603dd-1" vertex="1">
          <mxGeometry x="320" y="20" width="360" height="760" as="geometry" />
        </mxCell>
        <mxCell id="60571a20871a0731-5" value="" style="shape=mxgraph.bpmn.shape;html=1;verticalLabelPosition=bottom;labelBackgroundColor=#ffffff;verticalAlign=top;perimeter=ellipsePerimeter;outline=end;symbol=terminate;rounded=0;shadow=0;comic=0;strokeWidth=1;fontFamily=Verdana;fontSize=12;align=center;" parent="1c1d494c118603dd-4" vertex="1">
          <mxGeometry x="160" y="680" width="40" height="40" as="geometry" />
        </mxCell>
        <mxCell id="9redM43dmEc5Fs1zs8RA-4" value="Apakah &lt;i&gt;active role user&lt;/i&gt;&amp;nbsp;memiliki hak mengakses fitur &lt;i&gt;offline mode?&lt;/i&gt;" style="rhombus;whiteSpace=wrap;html=1;" parent="1c1d494c118603dd-4" vertex="1">
          <mxGeometry x="95" y="90" width="170" height="90" as="geometry" />
        </mxCell>
        <mxCell id="9redM43dmEc5Fs1zs8RA-11" style="edgeStyle=orthogonalEdgeStyle;rounded=0;orthogonalLoop=1;jettySize=auto;html=1;exitX=0.5;exitY=1;exitDx=0;exitDy=0;entryX=0.5;entryY=0;entryDx=0;entryDy=0;" parent="1c1d494c118603dd-4" source="9redM43dmEc5Fs1zs8RA-6" target="9redM43dmEc5Fs1zs8RA-7" edge="1">
          <mxGeometry relative="1" as="geometry" />
        </mxCell>
        <mxCell id="9redM43dmEc5Fs1zs8RA-6" value="Sinkronisasi Data &lt;i&gt;Role&lt;/i&gt;" style="rounded=1;whiteSpace=wrap;html=1;shadow=0;comic=0;labelBackgroundColor=none;strokeWidth=1;fontFamily=Verdana;fontSize=12;align=center;arcSize=50;" parent="1c1d494c118603dd-4" vertex="1">
          <mxGeometry x="45" y="310" width="115" height="30" as="geometry" />
        </mxCell>
        <mxCell id="9redM43dmEc5Fs1zs8RA-12" style="edgeStyle=orthogonalEdgeStyle;rounded=0;orthogonalLoop=1;jettySize=auto;html=1;exitX=0.5;exitY=1;exitDx=0;exitDy=0;entryX=0.5;entryY=0;entryDx=0;entryDy=0;" parent="1c1d494c118603dd-4" source="9redM43dmEc5Fs1zs8RA-7" target="9redM43dmEc5Fs1zs8RA-8" edge="1">
          <mxGeometry relative="1" as="geometry" />
        </mxCell>
        <mxCell id="9redM43dmEc5Fs1zs8RA-7" value="Sinkronisasi Data &lt;i&gt;My Course&lt;/i&gt;" style="rounded=1;whiteSpace=wrap;html=1;shadow=0;comic=0;labelBackgroundColor=none;strokeWidth=1;fontFamily=Verdana;fontSize=12;align=center;arcSize=50;" parent="1c1d494c118603dd-4" vertex="1">
          <mxGeometry x="45" y="370" width="115" height="30" as="geometry" />
        </mxCell>
        <mxCell id="9redM43dmEc5Fs1zs8RA-13" style="edgeStyle=orthogonalEdgeStyle;rounded=0;orthogonalLoop=1;jettySize=auto;html=1;exitX=0.5;exitY=1;exitDx=0;exitDy=0;entryX=0.5;entryY=0;entryDx=0;entryDy=0;" parent="1c1d494c118603dd-4" source="9redM43dmEc5Fs1zs8RA-8" target="9redM43dmEc5Fs1zs8RA-9" edge="1">
          <mxGeometry relative="1" as="geometry" />
        </mxCell>
        <mxCell id="9redM43dmEc5Fs1zs8RA-8" value="Sinkronisasi Data &lt;i&gt;Forum&lt;/i&gt;" style="rounded=1;whiteSpace=wrap;html=1;shadow=0;comic=0;labelBackgroundColor=none;strokeWidth=1;fontFamily=Verdana;fontSize=12;align=center;arcSize=50;" parent="1c1d494c118603dd-4" vertex="1">
          <mxGeometry x="45" y="430" width="115" height="30" as="geometry" />
        </mxCell>
        <mxCell id="9redM43dmEc5Fs1zs8RA-38" style="edgeStyle=orthogonalEdgeStyle;rounded=0;orthogonalLoop=1;jettySize=auto;html=1;exitX=0.5;exitY=1;exitDx=0;exitDy=0;entryX=0.5;entryY=0;entryDx=0;entryDy=0;" parent="1c1d494c118603dd-4" source="9redM43dmEc5Fs1zs8RA-9" target="9redM43dmEc5Fs1zs8RA-37" edge="1">
          <mxGeometry relative="1" as="geometry" />
        </mxCell>
        <mxCell id="9redM43dmEc5Fs1zs8RA-9" value="Sinkronisasi Data &lt;i&gt;Class Session&lt;/i&gt;" style="rounded=1;whiteSpace=wrap;html=1;shadow=0;comic=0;labelBackgroundColor=none;strokeWidth=1;fontFamily=Verdana;fontSize=12;align=center;arcSize=50;" parent="1c1d494c118603dd-4" vertex="1">
          <mxGeometry x="45" y="490" width="115" height="30" as="geometry" />
        </mxCell>
        <mxCell id="9redM43dmEc5Fs1zs8RA-40" style="edgeStyle=orthogonalEdgeStyle;rounded=0;orthogonalLoop=1;jettySize=auto;html=1;exitX=0.5;exitY=1;exitDx=0;exitDy=0;entryX=1;entryY=0.5;entryDx=0;entryDy=0;" parent="1c1d494c118603dd-4" source="9redM43dmEc5Fs1zs8RA-14" target="60571a20871a0731-5" edge="1">
          <mxGeometry relative="1" as="geometry" />
        </mxCell>
        <mxCell id="9redM43dmEc5Fs1zs8RA-14" value="Sinkronisasi Data &lt;i&gt;Role&lt;/i&gt;" style="rounded=1;whiteSpace=wrap;html=1;shadow=0;comic=0;labelBackgroundColor=none;strokeWidth=1;fontFamily=Verdana;fontSize=12;align=center;arcSize=50;" parent="1c1d494c118603dd-4" vertex="1">
          <mxGeometry x="230" y="220" width="115" height="30" as="geometry" />
        </mxCell>
        <mxCell id="9redM43dmEc5Fs1zs8RA-16" value="" style="endArrow=classic;html=1;rounded=0;exitX=0.5;exitY=1;exitDx=0;exitDy=0;entryX=0.5;entryY=0;entryDx=0;entryDy=0;edgeStyle=orthogonalEdgeStyle;" parent="1c1d494c118603dd-4" source="9redM43dmEc5Fs1zs8RA-4" target="9redM43dmEc5Fs1zs8RA-35" edge="1">
          <mxGeometry relative="1" as="geometry">
            <mxPoint x="70" y="250" as="sourcePoint" />
            <mxPoint x="170" y="250" as="targetPoint" />
          </mxGeometry>
        </mxCell>
        <mxCell id="9redM43dmEc5Fs1zs8RA-17" value="Ya" style="edgeLabel;resizable=0;html=1;align=center;verticalAlign=middle;" parent="9redM43dmEc5Fs1zs8RA-16" connectable="0" vertex="1">
          <mxGeometry relative="1" as="geometry" />
        </mxCell>
        <mxCell id="9redM43dmEc5Fs1zs8RA-18" value="" style="endArrow=classic;html=1;rounded=0;exitX=1;exitY=0.5;exitDx=0;exitDy=0;entryX=0.5;entryY=0;entryDx=0;entryDy=0;edgeStyle=orthogonalEdgeStyle;" parent="1c1d494c118603dd-4" source="9redM43dmEc5Fs1zs8RA-4" target="9redM43dmEc5Fs1zs8RA-14" edge="1">
          <mxGeometry relative="1" as="geometry">
            <mxPoint x="180" y="190" as="sourcePoint" />
            <mxPoint x="112.5" y="230" as="targetPoint" />
          </mxGeometry>
        </mxCell>
        <mxCell id="9redM43dmEc5Fs1zs8RA-19" value="Tidak" style="edgeLabel;resizable=0;html=1;align=center;verticalAlign=middle;" parent="9redM43dmEc5Fs1zs8RA-18" connectable="0" vertex="1">
          <mxGeometry relative="1" as="geometry" />
        </mxCell>
        <mxCell id="9redM43dmEc5Fs1zs8RA-36" style="edgeStyle=orthogonalEdgeStyle;rounded=0;orthogonalLoop=1;jettySize=auto;html=1;exitX=0.5;exitY=1;exitDx=0;exitDy=0;entryX=0.5;entryY=0;entryDx=0;entryDy=0;" parent="1c1d494c118603dd-4" source="9redM43dmEc5Fs1zs8RA-35" target="9redM43dmEc5Fs1zs8RA-6" edge="1">
          <mxGeometry relative="1" as="geometry" />
        </mxCell>
        <mxCell id="9redM43dmEc5Fs1zs8RA-35" value="Memunculkan &lt;i&gt;popup &lt;/i&gt;dan &lt;i&gt;loading bar orange&lt;/i&gt;&amp;nbsp;untuk menginformasikan proses sinkronisasi data dimulai" style="rounded=1;whiteSpace=wrap;html=1;shadow=0;comic=0;labelBackgroundColor=none;strokeWidth=1;fontFamily=Verdana;fontSize=12;align=center;arcSize=50;" parent="1c1d494c118603dd-4" vertex="1">
          <mxGeometry x="10" y="220" width="190" height="60" as="geometry" />
        </mxCell>
        <mxCell id="9redM43dmEc5Fs1zs8RA-39" style="edgeStyle=orthogonalEdgeStyle;rounded=0;orthogonalLoop=1;jettySize=auto;html=1;exitX=0.5;exitY=1;exitDx=0;exitDy=0;" parent="1c1d494c118603dd-4" source="9redM43dmEc5Fs1zs8RA-37" target="60571a20871a0731-5" edge="1">
          <mxGeometry relative="1" as="geometry">
            <Array as="points">
              <mxPoint x="103" y="700" />
            </Array>
          </mxGeometry>
        </mxCell>
        <mxCell id="9redM43dmEc5Fs1zs8RA-37" value="Memunculkan &lt;i&gt;popup &lt;/i&gt;dan &lt;i&gt;loading bar &lt;/i&gt;hijau&lt;i&gt;&amp;nbsp;&lt;/i&gt;untuk menginformasikan proses sinkronisasi data selesai" style="rounded=1;whiteSpace=wrap;html=1;shadow=0;comic=0;labelBackgroundColor=none;strokeWidth=1;fontFamily=Verdana;fontSize=12;align=center;arcSize=50;" parent="1c1d494c118603dd-4" vertex="1">
          <mxGeometry x="7.5" y="550" width="190" height="60" as="geometry" />
        </mxCell>
        <mxCell id="9redM43dmEc5Fs1zs8RA-5" style="edgeStyle=orthogonalEdgeStyle;rounded=0;orthogonalLoop=1;jettySize=auto;html=1;exitX=1;exitY=0.5;exitDx=0;exitDy=0;" parent="1c1d494c118603dd-1" source="60571a20871a0731-8" target="9redM43dmEc5Fs1zs8RA-4" edge="1">
          <mxGeometry relative="1" as="geometry" />
        </mxCell>
      </root>
    </mxGraphModel>
  </diagram>
</mxfile>
